<?xml version="1.0" standalone="no"?>
<!DOCTYPE svg PUBLIC "-//W3C//DTD SVG 20010904//EN"
 "http://www.w3.org/TR/2001/REC-SVG-20010904/DTD/svg10.dtd">
<svg version="1.0" xmlns="http://www.w3.org/2000/svg"
 width="512.000000pt" height="512.000000pt" viewBox="0 0 512.000000 512.000000"
 preserveAspectRatio="xMidYMid meet">

<g transform="translate(0.000000,512.000000) scale(0.100000,-0.100000)"
fill="#000000" stroke="none">
<path d="M2185 4899 c-38 -5 -149 -25 -245 -44 -96 -19 -247 -43 -335 -54
-161 -21 -534 -61 -560 -61 -21 0 -44 -50 -51 -112 -7 -61 19 -265 42 -330 8
-23 22 -50 30 -59 14 -16 11 -18 -43 -28 -94 -19 -247 -69 -284 -94 -43 -28
-65 -91 -81 -229 -26 -221 41 -394 168 -431 23 -6 42 -15 42 -19 1 -4 -9 -29
-21 -55 -32 -69 -31 -243 1 -325 13 -31 29 -62 37 -68 26 -21 17 -28 -47 -35
-93 -10 -142 -37 -168 -90 -21 -43 -21 -53 -15 -227 8 -204 17 -238 68 -268
l33 -20 -4 -137 c-4 -129 -2 -150 32 -317 l37 -179 -15 -90 c-20 -113 -20
-130 3 -195 13 -37 15 -55 7 -57 -6 -1 -84 -18 -174 -36 -89 -18 -170 -38
-180 -45 -13 -9 -19 -42 -29 -145 -18 -207 -17 -322 5 -342 51 -46 745 -224
1337 -342 494 -99 1372 -245 1492 -248 l61 -2 324 217 c241 162 373 243 518
318 188 98 343 192 370 225 11 13 10 22 -3 51 -22 45 -39 51 -77 24 -17 -12
-33 -21 -35 -19 -7 8 -33 264 -27 271 4 3 58 32 120 63 62 31 115 62 118 70 3
7 -2 27 -11 44 -17 35 -44 39 -85 16 -14 -8 -28 -14 -32 -15 -3 0 -9 24 -12
53 -4 28 -9 68 -12 88 -5 35 -4 36 61 74 36 21 64 43 62 49 -4 17 -121 71
-183 86 -59 14 -66 23 -31 41 46 25 137 122 137 146 0 34 -42 153 -87 249 -36
77 -38 85 -35 168 l3 86 40 21 c36 18 40 24 37 52 -2 25 -10 35 -35 47 -34 16
-36 22 -48 152 l-6 66 57 12 c71 15 101 28 109 48 9 23 -22 62 -50 62 -24 0
-25 3 -25 63 0 78 15 208 36 308 l16 77 71 8 c82 11 97 25 77 73 -7 18 -21 36
-31 42 -11 5 -79 20 -153 32 l-134 23 68 54 c74 58 122 114 113 136 -8 22 -39
26 -77 8 -20 -10 -38 -15 -40 -13 -7 6 -36 231 -36 274 0 29 5 37 34 50 61 29
69 46 63 122 -3 38 -15 127 -26 198 -11 72 -21 133 -21 138 0 4 -11 7 -25 7
-25 0 -26 2 -23 58 3 52 5 57 28 60 52 6 70 13 80 32 26 48 -2 67 -132 90 -63
11 -476 55 -668 70 -177 14 -1433 22 -1525 9z m1075 -89 c505 -19 824 -41 875
-60 22 -8 -44 -15 -225 -25 -258 -13 -774 -46 -860 -55 -52 -5 -148 -20 -213
-32 -117 -22 -118 -22 -300 -5 -433 41 -758 67 -837 68 -105 1 -183 12 -158
23 10 5 154 30 320 57 l303 48 415 -4 c228 -3 534 -9 680 -15z m1088 -171 l3
-46 -113 -6 c-62 -3 -201 -19 -308 -36 -107 -16 -248 -33 -312 -37 -123 -7
-154 -17 -143 -47 20 -50 199 -52 490 -3 196 32 405 60 410 54 1 -2 5 -28 9
-59 l6 -57 -115 -17 c-118 -18 -148 -32 -125 -60 9 -11 40 -15 123 -17 l111
-3 12 -41 12 -41 -37 -12 c-20 -6 -173 -25 -341 -41 -168 -16 -420 -43 -560
-60 -140 -17 -326 -33 -413 -37 -147 -6 -158 -5 -172 13 -27 36 -19 44 48 44
130 0 467 46 560 76 43 14 48 19 45 42 -3 25 -7 27 -54 30 -28 2 -125 -7 -215
-18 -90 -12 -228 -24 -306 -27 l-143 -6 0 26 c0 14 -2 32 -5 40 -5 11 21 15
147 21 162 7 250 22 294 51 24 15 25 18 11 33 -17 16 -18 16 -404 -24 l-53 -5
0 75 c0 54 4 79 16 90 8 9 19 16 23 16 4 0 52 7 107 15 54 8 219 22 365 30
147 9 428 34 625 55 198 21 368 37 379 36 16 -1 21 -9 23 -47z m-3161 -1 c-21
-82 -16 -263 9 -356 l6 -23 -48 18 c-45 17 -49 21 -61 68 -17 66 -31 219 -26
273 l5 42 60 0 c57 0 60 -1 55 -22z m241 7 c2 -1 -2 -23 -9 -48 -15 -62 -7
-259 13 -316 l16 -43 -69 4 c-77 4 -82 8 -100 73 -23 82 -29 160 -18 244 5 47
12 87 14 91 3 5 146 1 153 -5z m502 -45 c398 -37 383 -35 371 -58 -24 -45 -43
-186 -39 -285 3 -56 8 -109 12 -118 8 -18 9 -18 -224 12 -171 22 -437 64 -460
73 -25 10 -58 68 -75 131 -15 60 -20 197 -9 255 7 31 8 32 48 26 23 -3 192
-19 376 -36z m571 -55 c3 -2 -3 -64 -13 -137 -11 -73 -18 -170 -16 -216 l3
-82 -26 0 c-70 0 -101 110 -81 287 18 159 15 153 76 153 29 0 55 -2 57 -5z
m195 -158 c0 -133 10 -204 39 -279 6 -16 0 -18 -59 -18 -60 0 -67 2 -83 26
-24 37 -28 118 -13 279 l13 140 52 -3 52 -4 -1 -141z m-1277 -246 c96 -12 271
-37 390 -56 434 -70 931 -118 1206 -118 138 0 240 8 435 31 311 38 583 65 610
60 13 -2 -28 -33 -131 -98 -83 -52 -177 -117 -210 -143 -57 -46 -60 -48 -97
-38 -20 6 -131 15 -247 21 -235 11 -413 27 -780 70 -524 61 -711 80 -1045 105
-190 14 -393 32 -453 40 -154 20 -287 46 -287 55 0 22 323 101 390 95 25 -2
123 -13 219 -24z m2911 -166 l0 -104 -76 -48 c-209 -132 -405 -266 -460 -317
-66 -60 -74 -59 -74 9 0 40 6 45 175 140 165 93 228 139 253 184 51 90 16 88
-127 -6 -317 -208 -320 -209 -321 -141 0 22 9 32 48 54 40 23 323 195 497 302
83 51 85 49 85 -73z m-3500 1 c30 -7 55 -17 55 -22 0 -5 -7 -40 -15 -79 -17
-83 -18 -224 -2 -279 6 -22 9 -42 7 -45 -3 -2 -22 0 -43 5 -29 7 -41 17 -57
49 -17 34 -20 65 -23 213 -3 139 -1 172 10 172 7 -1 38 -7 68 -14z m307 -51
c70 -8 254 -24 408 -35 307 -22 515 -43 940 -95 428 -53 619 -73 743 -81 l112
-7 -7 -36 c-18 -81 -4 -225 33 -343 5 -16 -3 -18 -78 -18 -98 0 -238 12 -553
46 -126 13 -392 40 -590 59 -198 20 -445 47 -550 60 -104 14 -273 30 -375 36
-102 6 -194 14 -206 19 -46 18 -69 203 -42 346 7 38 17 64 24 64 7 0 70 -7
141 -15z m3209 -169 c3 -14 3 -30 -1 -36 -14 -22 -457 -348 -515 -379 -167
-89 -90 33 118 187 84 62 373 251 384 252 4 0 10 -11 14 -24z m-718 -71 c1 -1
0 -88 -4 -194 l-7 -191 -64 0 c-64 0 -64 0 -79 35 -31 74 -48 162 -48 245 0
126 -4 123 106 114 51 -3 94 -8 96 -9z m759 -141 c171 -39 177 -47 44 -59 -42
-3 -118 -15 -170 -26 -52 -10 -96 -18 -97 -16 -4 4 138 116 148 117 4 0 37 -7
75 -16z m-3157 -134 c206 -14 233 -18 224 -39 -47 -111 -57 -159 -58 -266 -1
-60 3 -125 7 -142 8 -31 7 -33 -20 -33 -50 0 -225 30 -308 52 -59 16 -88 30
-112 53 -74 74 -85 269 -20 369 15 22 22 24 74 20 32 -2 128 -9 213 -14z
m3204 -27 c-12 -49 -20 -56 -95 -75 -41 -10 -99 -31 -129 -46 -45 -22 -56 -32
-58 -56 -4 -33 -15 -33 153 2 l90 19 3 -24 c6 -41 -4 -51 -60 -58 -68 -9 -118
-30 -118 -49 0 -27 39 -39 104 -32 l61 6 -3 -48 -4 -48 -281 -62 c-477 -104
-1006 -203 -1028 -191 -11 5 -19 14 -19 19 0 4 -2 15 -5 23 -5 11 10 15 72 20
43 3 143 20 222 37 79 17 234 43 345 59 257 37 359 75 340 125 -8 20 -21 20
-146 -3 -57 -11 -171 -29 -254 -41 -84 -11 -228 -36 -320 -54 -93 -19 -195
-37 -226 -41 l-58 -6 0 40 c0 29 5 41 18 45 40 12 227 36 349 46 151 12 246
36 251 64 6 27 -15 36 -88 36 -67 0 -420 -34 -477 -46 -41 -8 -42 2 -9 71 45
96 28 92 376 98 383 8 424 13 510 71 54 37 83 48 170 67 58 12 141 30 185 40
44 10 92 18 108 18 25 1 27 -1 21 -26z m-2704 -34 c0 -4 -11 -29 -24 -56 -44
-88 -60 -161 -61 -275 l0 -108 -36 0 c-75 0 -96 9 -115 53 -40 88 -15 291 46
375 l27 38 82 -9 c44 -6 81 -13 81 -18z m450 -39 c387 -37 510 -50 537 -56 21
-4 21 -4 -8 -57 -51 -95 -76 -274 -50 -365 5 -17 8 -32 7 -32 -4 0 -783 79
-854 86 -56 6 -65 10 -74 33 -18 46 -3 208 25 285 24 64 77 136 102 136 5 0
147 -13 315 -30z m792 -80 l27 0 -24 -52 c-44 -97 -58 -172 -53 -298 l4 -116
-46 7 c-25 4 -52 8 -61 8 -10 1 -25 22 -39 53 -19 44 -22 65 -18 147 3 87 7
104 43 180 l39 83 51 -6 c27 -3 62 -6 77 -6z m-1927 -330 c124 -36 319 -62
1005 -135 247 -26 1022 -125 1029 -130 1 -2 0 -88 -4 -192 l-7 -188 -322 27
c-391 32 -824 63 -1171 83 -241 14 -456 32 -460 38 -3 3 27 302 30 305 1 2 49
-2 105 -8 111 -11 339 -14 364 -4 24 9 19 41 -6 47 -13 4 -108 15 -213 27
-352 38 -635 78 -635 89 0 13 45 33 104 46 84 18 101 18 181 -5z m3265 -108
l0 -49 -103 -66 c-130 -84 -257 -151 -332 -177 -68 -23 -85 -36 -85 -61 0 -19
28 -39 55 -39 50 0 319 136 425 215 30 22 35 23 43 9 5 -8 7 -21 4 -27 -5 -15
-244 -155 -362 -215 -44 -21 -129 -58 -190 -80 -60 -22 -118 -44 -128 -47 -16
-7 -18 -1 -15 80 l3 87 175 84 c96 46 185 92 198 104 32 27 25 54 -15 58 -29
3 -167 -60 -315 -144 -27 -15 -51 -25 -54 -21 -8 7 -9 185 -2 192 3 3 104 26
224 50 120 25 264 56 319 69 55 14 112 25 128 25 26 1 27 -1 27 -47z m-3491
-38 c26 -3 53 -9 58 -13 5 -3 7 -72 5 -159 l-4 -153 -32 6 c-79 17 -80 20 -87
135 -3 58 -9 127 -14 154 -7 43 -6 48 9 43 8 -3 38 -9 65 -13z m257 -37 c1 -1
-7 -56 -17 -122 -10 -66 -18 -135 -18 -154 -1 -34 -1 -34 -42 -28 -22 3 -42 7
-43 9 -2 1 -6 72 -10 157 l-7 153 68 -7 c37 -4 68 -8 69 -8z m2429 -246 c4
-115 4 -217 1 -227 -4 -15 -15 -19 -48 -18 -42 1 -43 3 -56 45 -12 40 -31 247
-32 345 l0 42 48 10 c87 18 79 37 87 -197z m-211 47 c-4 -75 -2 -154 5 -202 6
-44 10 -81 8 -83 -2 -1 -31 0 -65 3 l-61 7 -5 51 c-10 109 -25 321 -22 324 5
5 89 20 119 21 l28 1 -7 -122z m1032 -113 c-7 -19 -196 -144 -281 -188 -82
-41 -125 -81 -107 -99 23 -23 152 27 318 121 l72 40 40 -97 c62 -151 62 -144
-4 -196 -31 -24 -99 -68 -152 -97 -54 -29 -152 -88 -219 -131 -68 -43 -160
-97 -205 -119 -82 -39 -83 -39 -86 -17 -1 13 1 41 5 62 8 37 15 44 96 90 98
57 277 200 277 220 0 55 -116 0 -260 -123 -58 -49 -107 -88 -109 -86 -2 2 0
94 4 204 l7 200 97 32 c112 37 253 103 401 188 l105 60 3 -25 c2 -14 1 -32 -2
-39z m-3325 -100 c57 -8 156 -19 219 -25 63 -5 134 -13 158 -16 l42 -5 -34
-41 c-67 -78 -91 -166 -84 -309 3 -68 10 -98 31 -140 14 -29 25 -54 24 -55
-12 -9 -457 52 -468 64 -4 4 -15 52 -25 107 -18 103 -26 384 -12 418 9 21 17
21 149 2z m599 -128 c-75 -139 -85 -244 -36 -402 14 -43 24 -80 23 -81 -1 -2
-22 0 -46 3 -40 5 -46 11 -82 66 -51 78 -62 124 -56 222 6 100 20 135 86 208
51 54 55 57 102 57 l48 0 -39 -73z m383 49 c109 -8 201 -17 204 -19 7 -8 68
-145 105 -236 41 -102 48 -200 20 -263 l-20 -47 -209 6 c-114 3 -251 8 -303
12 l-95 6 -23 70 c-48 142 -39 257 33 413 30 65 37 72 62 72 15 -1 117 -7 226
-14z m414 -32 c69 -14 182 -264 183 -405 0 -48 -33 -124 -61 -142 -9 -5 -36
-7 -62 -3 l-46 7 15 41 c37 104 -9 312 -100 456 -14 23 -26 44 -26 47 0 7 60
6 97 -1z m638 -54 c462 -41 488 -42 549 -6 l48 28 -6 -48 c-3 -27 -11 -134
-16 -239 -10 -178 -14 -227 -26 -282 -4 -21 -10 -23 -62 -23 -31 0 -100 5
-152 10 -52 5 -232 19 -399 30 -167 11 -305 21 -307 23 -2 1 3 25 11 52 38
124 -10 330 -108 469 l-20 29 74 -7 c41 -3 227 -20 414 -36z m1365 -380 c8 -5
11 -12 7 -17 -4 -4 -236 -120 -515 -259 -505 -250 -507 -251 -543 -239 -93 33
-559 121 -1349 255 -552 94 -680 117 -687 124 -17 17 90 12 478 -24 444 -40
878 -73 1104 -85 66 -3 212 -13 325 -22 131 -10 249 -13 328 -9 190 10 257 36
556 219 l109 67 86 0 c47 0 93 -4 101 -10z m-3449 -159 c10 -11 -13 -201 -25
-201 -26 0 -56 33 -66 72 -12 41 -9 69 12 121 10 25 14 27 42 21 17 -3 34 -9
37 -13z m3449 -16 c0 -22 -16 -33 -140 -95 -125 -63 -153 -84 -134 -102 9 -9
113 19 193 51 41 17 75 31 77 31 14 0 0 -48 -17 -59 -12 -7 -181 -96 -376
-197 -343 -178 -431 -229 -520 -301 l-43 -34 0 49 0 50 93 55 c50 30 112 65
137 77 147 73 210 129 165 147 -24 8 -127 -32 -255 -101 -63 -33 -118 -62
-122 -64 -5 -2 -8 13 -8 33 l0 36 133 64 c72 35 247 118 389 184 141 66 292
138 335 160 43 22 81 40 86 41 4 0 7 -11 7 -25z m-3095 -57 c7 -6 -17 -208
-24 -207 -3 0 -62 12 -131 27 l-125 27 2 94 c1 51 4 99 6 105 4 9 39 5 136
-14 72 -14 133 -29 136 -32z m411 -71 c1 -1 -2 -22 -6 -47 -5 -25 -9 -75 -10
-111 l0 -66 -142 29 c-79 15 -151 31 -162 34 -17 6 -18 14 -12 107 4 55 9 104
11 107 3 6 314 -45 321 -53z m264 -42 c80 -14 146 -25 146 -25 2 0 -8 -234
-10 -237 0 -1 -71 13 -156 30 l-155 32 -8 45 c-4 25 -5 75 -1 113 5 53 9 67
23 67 9 0 81 -11 161 -25z m346 -58 c1 -1 -6 -55 -15 -119 -14 -106 -18 -118
-36 -118 -11 0 -26 4 -33 8 -20 13 -36 121 -28 186 l8 58 51 -6 c28 -4 52 -8
53 -9z m272 -46 c90 -16 165 -31 167 -33 3 -3 -4 -39 -15 -82 -11 -42 -22 -99
-26 -127 -5 -39 -10 -49 -23 -45 -9 3 -76 19 -150 36 -73 16 -137 33 -142 36
-10 6 -12 150 -3 207 4 20 12 37 18 37 6 0 84 -13 174 -29z m-1448 -51 c207
-56 221 -59 775 -175 220 -46 474 -100 565 -119 91 -19 318 -64 504 -100 187
-36 340 -67 342 -68 1 -2 -6 -14 -16 -28 -22 -29 43 -39 -685 110 -291 60
-843 170 -1225 245 -382 75 -702 139 -710 142 -17 7 163 40 226 42 23 0 124
-21 224 -49z m1775 -10 c3 -5 -1 -31 -10 -57 -9 -27 -22 -84 -28 -128 -12 -79
-12 -80 -39 -77 -27 3 -28 6 -28 55 0 29 7 89 16 135 l17 82 33 0 c18 0 36 -4
39 -10z m1391 -35 c3 -20 5 -37 3 -39 -2 -1 -29 -13 -59 -25 -92 -39 -347
-192 -405 -244 -57 -51 -72 -87 -34 -87 21 0 56 19 224 122 81 50 267 148 280
148 3 0 5 -28 5 -63 0 -48 -4 -65 -17 -73 -10 -6 -99 -55 -198 -109 -173 -94
-288 -167 -553 -351 -68 -48 -125 -85 -127 -83 -1 2 -6 33 -10 69 l-7 65 114
92 c130 105 153 127 143 142 -10 18 -57 12 -95 -10 -19 -12 -63 -43 -96 -70
-34 -27 -64 -49 -67 -49 -5 0 0 25 23 112 11 41 19 52 64 80 51 32 785 407
798 408 4 0 10 -16 14 -35z m-958 -50 c13 -5 17 -139 5 -233 -5 -49 -8 -53
-27 -47 -28 8 -226 52 -298 65 l-58 11 0 52 c0 59 16 164 30 201 l9 24 163
-34 c90 -19 169 -36 176 -39z m-2728 36 c73 -15 85 -20 83 -37 -1 -10 -11 -68
-22 -129 -11 -60 -21 -127 -21 -147 0 -20 -4 -39 -9 -43 -6 -3 -40 2 -77 11
l-67 17 7 90 c3 50 6 128 6 174 0 45 3 83 8 83 4 -1 45 -9 92 -19z m222 -46
c25 -4 49 -10 54 -13 13 -10 -8 -370 -21 -366 -5 2 -36 10 -69 20 l-59 16 7
132 c9 180 16 228 31 222 7 -2 33 -7 57 -11z m393 -84 c105 -23 511 -106 903
-185 392 -79 716 -146 718 -149 3 -3 0 -22 -6 -44 -6 -21 -14 -96 -17 -167
l-6 -128 -61 7 c-126 14 -772 126 -1041 180 -275 55 -699 150 -715 160 -13 8
-22 169 -15 275 7 97 9 101 29 96 12 -3 107 -23 211 -45z m1801 -410 c-4 -25
-9 -102 -13 -170 l-6 -123 -41 6 c-22 4 -44 12 -48 19 -19 31 -23 295 -4 325
3 5 31 4 62 -1 l56 -11 -6 -45z m249 -76 c4 -38 5 -108 3 -155 l-3 -85 -66 1
c-105 1 -99 -8 -99 156 0 198 -5 187 85 169 l74 -15 6 -71z"/>
<path d="M1703 4458 c-37 -39 -53 -76 -53 -124 0 -64 52 -55 64 11 10 52 24
51 32 -2 8 -57 19 -73 48 -73 16 0 30 14 51 50 16 28 32 50 35 50 3 0 17 -20
32 -45 32 -52 59 -58 84 -20 l16 25 35 -30 c40 -35 58 -38 73 -9 9 17 6 29
-21 72 -38 61 -59 87 -70 87 -4 0 -21 -11 -37 -25 l-29 -24 -33 34 c-41 42
-55 43 -93 8 -27 -26 -29 -27 -39 -9 -13 23 -46 56 -56 56 -4 0 -22 -15 -39
-32z"/>
<path d="M1227 3818 c-23 -12 -47 -61 -47 -95 0 -43 36 -92 83 -113 54 -25 81
-25 132 0 l42 20 44 -25 c55 -31 130 -34 175 -6 31 19 33 19 70 0 54 -26 131
-39 233 -39 47 0 149 -9 226 -20 77 -11 208 -23 290 -26 109 -4 160 -10 185
-22 29 -14 66 -17 205 -16 189 2 258 11 263 35 4 22 -19 27 -173 39 -71 6
-193 19 -270 30 -325 44 -628 79 -736 84 -126 6 -169 17 -212 53 -38 31 -60
29 -97 -7 -46 -45 -94 -42 -153 10 -53 47 -80 50 -104 13 -22 -35 -33 -43 -59
-43 -41 0 -59 24 -56 78 2 53 -10 68 -41 50z"/>
<path d="M1071 3372 c-19 -10 -43 -34 -53 -53 -56 -100 44 -209 192 -209 153
0 205 182 74 257 -51 30 -163 32 -213 5z m184 -87 c40 -39 27 -82 -32 -99 -53
-16 -153 39 -153 84 0 27 30 39 103 39 49 1 62 -3 82 -24z"/>
<path d="M1832 2699 c-33 -13 -24 -42 18 -56 19 -7 62 -12 95 -12 33 -1 159
-10 280 -22 275 -26 415 -20 415 17 0 23 -42 33 -188 44 -75 6 -225 17 -332
25 -221 17 -256 18 -288 4z"/>
<path d="M972 2203 c-19 -16 -22 -33 -28 -175 -6 -137 -5 -161 10 -183 34 -51
78 -25 69 41 -6 49 5 204 17 223 6 11 22 10 87 -3 107 -21 121 -21 134 8 24
53 -13 72 -181 91 -30 4 -62 8 -71 11 -9 2 -26 -4 -37 -13z"/>
<path d="M3479 2023 c-6 -16 -13 -80 -16 -145 l-6 -116 -31 -5 c-17 -2 -113
-2 -213 1 -132 4 -190 2 -212 -7 -49 -21 -51 -59 -5 -80 17 -7 110 -11 278
-11 238 0 254 1 271 19 15 18 17 37 13 173 -2 97 -8 161 -16 176 -18 31 -50
28 -63 -5z"/>
</g>
</svg>
